<?xml version="1.0" encoding="utf-8"?>
<!-- Generator: Adobe Illustrator 21.1.0, SVG Export Plug-In . SVG Version: 6.00 Build 0)  -->
<svg version="1.1" id="Layer_1" xmlns="http://www.w3.org/2000/svg" xmlns:xlink="http://www.w3.org/1999/xlink" x="0px" y="0px"
	 viewBox="0 0 457.3 457.3" style="enable-background:new 0 0 457.3 457.3;" xml:space="preserve">
<style type="text/css">
	.st0{fill:#FF8E00;}
	.st1{fill:#FFEF6A;}
	.st2{fill:#E96800;}
	.st3{display:none;}
	.st4{display:inline;}
</style>
<g>
	<polyline class="st0" points="190.1,160.4 269.7,160.9 229.9,229.1 190,160.6 190,160.6 190,160.6 229.9,91.3 269.7,160.9 
		229.9,229.1 190,160.6 190,160.6 	"/>
</g>
<polyline class="st1" points="269.5,159.7 308.9,228.9 230,228.6 269.3,159.7 269.3,159.7 269.3,159.7 349.3,159.7 308.9,228.9 
	230,228.6 269.3,159.7 269.3,159.7 "/>
<polyline class="st2" points="269.7,297.7 310,229.1 349.1,297.6 269.8,297.9 269.8,297.9 269.8,297.9 229.8,228.6 310,229.1 
	349.1,297.6 269.8,297.9 269.8,297.9 "/>
<polyline class="st2" points="269.2,160 309.5,91.3 348.7,159.8 269.3,160.1 269.3,160.1 269.3,160.1 229.3,90.9 309.5,91.3 
	348.7,159.8 269.3,160.1 269.3,160.1 "/>
<polyline class="st1" points="151.1,90.8 190.5,160 111.6,159.7 150.9,90.8 150.9,90.8 150.9,90.8 230.9,90.8 190.5,160 
	111.6,159.7 150.9,90.8 150.9,90.8 "/>
<g>
	<polyline class="st0" points="70.7,228.3 150.3,228.9 110.5,297 70.6,228.5 70.6,228.5 70.6,228.5 110.5,159.2 150.3,228.9 
		110.5,297 70.6,228.5 70.6,228.5 	"/>
</g>
<polyline class="st2" points="150.2,366.4 190.5,297.7 229.6,366.2 150.3,366.6 150.3,366.6 150.3,366.6 110.3,297.3 190.5,297.7 
	229.6,366.2 150.3,366.6 150.3,366.6 "/>
<polyline class="st0" points="309,228.3 388.7,228.9 348.9,297 308.9,228.5 308.9,228.5 308.9,228.5 348.9,159.2 388.7,228.9 
	348.9,297 308.9,228.5 308.9,228.5 "/>
<polyline class="st1" points="269.6,297.3 309,366.6 230.1,366.2 269.4,297.3 269.4,297.3 269.4,297.3 349.4,297.3 309,366.6 
	230.1,366.2 269.4,297.3 269.4,297.3 "/>
<polyline class="st1" points="150.2,228.3 189.5,297.5 110.6,297.2 150,228.3 150,228.3 150,228.3 230,228.3 189.5,297.5 
	110.6,297.2 150,228.3 150,228.3 "/>
<polyline class="st2" points="150.3,228.7 190.6,160.1 229.7,228.6 150.4,228.9 150.4,228.9 150.4,228.9 110.4,159.6 190.6,160.1 
	229.7,228.6 150.4,228.9 150.4,228.9 "/>
<g>
	<polyline class="st0" points="189.7,297.3 269.3,297.8 229.6,366 189.6,297.5 189.6,297.5 189.6,297.5 229.6,228.2 269.3,297.8 
		229.6,366 189.6,297.5 189.6,297.5 	"/>
</g>
<g id="Layer_1_1_" class="st3">
	<g class="st4">
		<g>
			<path d="M428.5,119.7c-0.6-4.3-3.1-8.3-7.1-10.7c-1.8-1-185-106.8-185.7-107.2c-4.6-2.6-10.1-2.4-14.3,0.1
				C219.6,3,36.5,108.6,35.8,109.1c-4.5,2.7-7.1,7.5-7.1,12.5c0,2,0,213.6,0,214.3c0.1,4.9,2.6,9.6,7.3,12.4c0,0,0.1,0.1,0.2,0.1
				c0.7,0.4,185.2,106.9,185.8,107.3c4.5,2.4,9.8,2.1,14-0.3c0.3-0.2,185.2-106.9,185.5-107.1c4.5-2.6,7.2-7.5,7.2-12.5
				C428.6,117.1,428.6,121.1,428.5,119.7z M57.7,146.7l35,20.2v123.4l-35,20.2C57.7,310.5,57.7,146.7,57.7,146.7z M214.1,417.6
				L72.2,335.7l35-20.2l106.9,61.7V417.6z M214.1,343.7l-77.8-44.9l31.1-17.9l46.8,27v35.8H214.1z M121.8,273.6v-89.9l31.1,17.9v54
				L121.8,273.6z M214.1,274.3L196.4,264l17.7-10.2L214.1,274.3L214.1,274.3z M181.8,238.9v-20.5l17.7,10.2L181.8,238.9z
				 M214.1,203.5l-17.7-10.2l17.7-10.2V203.5z M214.1,149.5l-46.8,27l-31.1-17.9l77.8-44.9v35.8H214.1z M214.1,80.1l-106.9,61.7
				l-35-20.2l141.9-81.9V80.1z M243.2,39.7L385,121.6l-35,20.2L243.2,80.1V39.7z M243.2,113.6l77.8,44.9l-31.1,17.9l-46.8-27v-35.8
				H243.2z M335.5,183.7v89.9l-31.1-17.9v-54L335.5,183.7z M257.7,228.6l17.7-10.2v20.5L257.7,228.6z M260.9,264l-17.7,10.2v-20.5
				L260.9,264z M243.2,203.5V183l17.7,10.2L243.2,203.5z M243.2,307.8L243.2,307.8l46.8-27l31.1,17.9l-77.8,44.9v-35.8H243.2z
				 M243.2,417.6v-40.4L350,315.5l35,20.2L243.2,417.6z M399.5,310.5l-35-20.2V166.9l35-20.2V310.5z"/>
		</g>
	</g>
</g>
</svg>
