<?xml version="1.0" encoding="UTF-8" standalone="no"?>
<!-- Generator: Adobe Illustrator 21.1.0, SVG Export Plug-In . SVG Version: 6.00 Build 0)  -->

<svg
   xmlns:dc="http://purl.org/dc/elements/1.1/"
   xmlns:cc="http://creativecommons.org/ns#"
   xmlns:rdf="http://www.w3.org/1999/02/22-rdf-syntax-ns#"
   xmlns:svg="http://www.w3.org/2000/svg"
   xmlns="http://www.w3.org/2000/svg"
   xmlns:sodipodi="http://sodipodi.sourceforge.net/DTD/sodipodi-0.dtd"
   xmlns:inkscape="http://www.inkscape.org/namespaces/inkscape"
   version="1.1"
   id="Layer_1"
   x="0px"
   y="0px"
   viewBox="0 0 451.98787 391.88383"
   xml:space="preserve"
   sodipodi:docname="icon.svg"
   width="451.98785"
   height="391.88382"
   inkscape:version="0.92.2 5c3e80d, 2017-08-06"><metadata
     id="metadata154"><rdf:RDF><cc:Work
         rdf:about=""><dc:format>image/svg+xml</dc:format><dc:type
           rdf:resource="http://purl.org/dc/dcmitype/StillImage" /><dc:title></dc:title></cc:Work></rdf:RDF></metadata><defs
     id="defs152" /><sodipodi:namedview
     pagecolor="#ffffff"
     bordercolor="#666666"
     borderopacity="1"
     objecttolerance="1"
     gridtolerance="10000"
     guidetolerance="10"
     inkscape:pageopacity="0"
     inkscape:pageshadow="2"
     inkscape:window-width="1920"
     inkscape:window-height="964"
     id="namedview150"
     showgrid="false"
     inkscape:zoom="1.7056637"
     inkscape:cx="144.72801"
     inkscape:cy="240.40525"
     inkscape:window-x="0"
     inkscape:window-y="27"
     inkscape:window-maximized="1"
     inkscape:current-layer="Layer_1"
     inkscape:snap-path-clip="false"
     fit-margin-top="0"
     fit-margin-left="0"
     fit-margin-right="0"
     fit-margin-bottom="0" /><style
     type="text/css"
     id="style110">
	.st0{fill:#FF8E00;}
	.st1{fill:#FFEF6A;}
	.st2{fill:#E96800;}
	.st3{display:none;}
	.st4{display:inline;}
</style><g
     id="g114"
     transform="matrix(1.4208986,0,0,1.4208986,-100.31544,-129.01759)"><polyline
       class="st0"
       points="190.1,160.4 269.7,160.9 229.9,229.1 190,160.6 190,160.6 190,160.6 229.9,91.3 269.7,160.9    229.9,229.1 190,160.6 190,160.6  "
       id="polyline112"
       style="fill:#ff8e00" /></g><polyline
     class="st1"
     points="269.5,159.7 308.9,228.9 230,228.6 269.3,159.7 269.3,159.7 269.3,159.7 349.3,159.7 308.9,228.9   230,228.6 269.3,159.7 269.3,159.7 "
     id="polyline116"
     transform="matrix(1.4208986,0,0,1.4208986,-100.31544,-129.01759)"
     style="fill:#ffef6a" /><polyline
     class="st2"
     points="269.7,297.7 310,229.1 349.1,297.6 269.8,297.9 269.8,297.9 269.8,297.9 229.8,228.6 310,229.1   349.1,297.6 269.8,297.9 269.8,297.9 "
     id="polyline118"
     transform="matrix(1.4208986,0,0,1.4208986,-100.31544,-129.01759)"
     style="fill:#e96800" /><polyline
     class="st2"
     points="269.2,160 309.5,91.3 348.7,159.8 269.3,160.1 269.3,160.1 269.3,160.1 229.3,90.9 309.5,91.3   348.7,159.8 269.3,160.1 269.3,160.1 "
     id="polyline120"
     transform="matrix(1.4208986,0,0,1.4208986,-100.31544,-129.01759)"
     style="fill:#e96800" /><polyline
     class="st1"
     points="151.1,90.8 190.5,160 111.6,159.7 150.9,90.8 150.9,90.8 150.9,90.8 230.9,90.8 190.5,160   111.6,159.7 150.9,90.8 150.9,90.8 "
     id="polyline122"
     transform="matrix(1.4208986,0,0,1.4208986,-100.31544,-129.01759)"
     style="fill:#ffef6a" /><g
     id="g126"
     transform="matrix(1.4208986,0,0,1.4208986,-100.31544,-129.01759)"><polyline
       class="st0"
       points="70.7,228.3 150.3,228.9 110.5,297 70.6,228.5 70.6,228.5 70.6,228.5 110.5,159.2 150.3,228.9    110.5,297 70.6,228.5 70.6,228.5  "
       id="polyline124"
       style="fill:#ff8e00" /></g><polyline
     class="st2"
     points="150.2,366.4 190.5,297.7 229.6,366.2 150.3,366.6 150.3,366.6 150.3,366.6 110.3,297.3 190.5,297.7   229.6,366.2 150.3,366.6 150.3,366.6 "
     id="polyline128"
     transform="matrix(1.4208986,0,0,1.4208986,-100.31544,-129.01759)"
     style="fill:#e96800" /><polyline
     class="st0"
     points="309,228.3 388.7,228.9 348.9,297 308.9,228.5 308.9,228.5 308.9,228.5 348.9,159.2 388.7,228.9   348.9,297 308.9,228.5 308.9,228.5 "
     id="polyline130"
     transform="matrix(1.4208986,0,0,1.4208986,-100.31544,-129.01759)"
     style="fill:#ff8e00" /><polyline
     class="st1"
     points="269.6,297.3 309,366.6 230.1,366.2 269.4,297.3 269.4,297.3 269.4,297.3 349.4,297.3 309,366.6   230.1,366.2 269.4,297.3 269.4,297.3 "
     id="polyline132"
     transform="matrix(1.4208986,0,0,1.4208986,-100.31544,-129.01759)"
     style="fill:#ffef6a" /><polyline
     class="st1"
     points="150.2,228.3 189.5,297.5 110.6,297.2 150,228.3 150,228.3 150,228.3 230,228.3 189.5,297.5   110.6,297.2 150,228.3 150,228.3 "
     id="polyline134"
     transform="matrix(1.4208986,0,0,1.4208986,-100.31544,-129.01759)"
     style="fill:#ffef6a" /><polyline
     class="st2"
     points="150.3,228.7 190.6,160.1 229.7,228.6 150.4,228.9 150.4,228.9 150.4,228.9 110.4,159.6 190.6,160.1   229.7,228.6 150.4,228.9 150.4,228.9 "
     id="polyline136"
     transform="matrix(1.4208986,0,0,1.4208986,-100.31544,-129.01759)"
     style="fill:#e96800" /><g
     id="g140"
     transform="matrix(1.4208986,0,0,1.4208986,-100.31544,-129.01759)"><polyline
       class="st0"
       points="189.7,297.3 269.3,297.8 229.6,366 189.6,297.5 189.6,297.5 189.6,297.5 229.6,228.2 269.3,297.8    229.6,366 189.6,297.5 189.6,297.5  "
       id="polyline138"
       style="fill:#ff8e00" /></g><g
     id="Layer_1_1_"
     class="st3"
     style="display:none"
     transform="translate(-3.6560702,-32.758076)"><g
       class="st4"
       id="g146"
       style="display:inline"><g
         id="g144"><path
           d="m 428.5,119.7 c -0.6,-4.3 -3.1,-8.3 -7.1,-10.7 C 419.6,108 236.4,2.2 235.7,1.8 231.1,-0.8 225.6,-0.6 221.4,1.9 219.6,3 36.5,108.6 35.8,109.1 c -4.5,2.7 -7.1,7.5 -7.1,12.5 0,2 0,213.6 0,214.3 0.1,4.9 2.6,9.6 7.3,12.4 0,0 0.1,0.1 0.2,0.1 0.7,0.4 185.2,106.9 185.8,107.3 4.5,2.4 9.8,2.1 14,-0.3 0.3,-0.2 185.2,-106.9 185.5,-107.1 4.5,-2.6 7.2,-7.5 7.2,-12.5 -0.1,-218.7 -0.1,-214.7 -0.2,-216.1 z m -370.8,27 35,20.2 v 123.4 l -35,20.2 c 0,0 0,-163.8 0,-163.8 z m 156.4,270.9 -141.9,-81.9 35,-20.2 106.9,61.7 z m 0,-73.9 -77.8,-44.9 31.1,-17.9 46.8,27 v 35.8 z m -92.3,-70.1 v -89.9 l 31.1,17.9 v 54 z m 92.3,0.7 -17.7,-10.3 17.7,-10.2 z m -32.3,-35.4 v -20.5 l 17.7,10.2 z m 32.3,-35.4 -17.7,-10.2 17.7,-10.2 z m 0,-54 -46.8,27 -31.1,-17.9 77.8,-44.9 v 35.8 z m 0,-69.4 -106.9,61.7 -35,-20.2 141.9,-81.9 z M 243.2,39.7 385,121.6 350,141.8 243.2,80.1 Z m 0,73.9 77.8,44.9 -31.1,17.9 -46.8,-27 v -35.8 z m 92.3,70.1 v 89.9 l -31.1,-17.9 v -54 z m -77.8,44.9 17.7,-10.2 v 20.5 z m 3.2,35.4 -17.7,10.2 V 253.7 Z M 243.2,203.5 V 183 l 17.7,10.2 z m 0,104.3 v 0 l 46.8,-27 31.1,17.9 -77.8,44.9 v -35.8 z m 0,109.8 v -40.4 l 106.8,-61.7 35,20.2 z m 156.3,-107.1 -35,-20.2 V 166.9 l 35,-20.2 z"
           id="path142"
           inkscape:connector-curvature="0" /></g></g></g></svg>