<svg id="Layer_2" data-name="Layer 2" xmlns="http://www.w3.org/2000/svg" viewBox="0 0 389.08 336.97"><defs><style>.cls-1{fill:none;stroke:#000;stroke-miterlimit:10;}.cls-2{fill:#ffef6a;}.cls-3{fill:#e96800;}.cls-4{fill:#ff8e00;}</style></defs><title>steemsites</title><path class="cls-1" d="M143.77,86"/><path class="cls-1" d="M174.08,123.77"/><polygon class="cls-2" points="97.28 0 48.64 84.24 145.9 84.24 194.54 0 97.28 0"/><polygon class="cls-3" points="291.82 0.01 194.54 0 243.17 84.24 340.45 84.24 291.82 0.01"/><polygon class="cls-4" points="145.91 84.24 194.54 168.48 243.18 84.25 194.54 0 145.91 84.24"/><polygon class="cls-3" points="145.91 84.24 48.63 84.24 97.27 168.48 194.54 168.48 145.91 84.24"/><polygon class="cls-4" points="0 168.48 48.64 252.72 97.27 168.49 48.63 84.25 0 168.48"/><polygon class="cls-2" points="97.28 168.48 48.64 252.72 145.9 252.72 194.54 168.48 97.28 168.48"/><polygon class="cls-3" points="145.91 252.73 48.63 252.73 97.27 336.96 194.54 336.96 145.91 252.73"/><polygon class="cls-4" points="145.91 252.72 194.55 336.97 243.18 252.73 194.54 168.49 145.91 252.72"/><polygon class="cls-2" points="243.18 84.24 194.54 168.48 291.81 168.48 340.45 84.24 243.18 84.24"/><polygon class="cls-4" points="291.81 168.47 340.45 252.72 389.08 168.48 340.44 84.24 291.81 168.47"/><polygon class="cls-3" points="291.82 168.49 194.54 168.49 243.17 252.72 340.45 252.72 291.82 168.49"/><polygon class="cls-2" points="243.18 252.73 194.54 336.97 291.81 336.97 340.45 252.73 243.18 252.73"/></svg>